<svg width="1116" height="1158" viewBox="0 0 1116 1158" fill="none" xmlns="http://www.w3.org/2000/svg">
<g filter="url(#filter0_f_2663_23)">
<path d="M301.937 333.407C301.937 333.407 445.292 199.93 555.139 142.627C708.391 62.6818 984.294 33 984.294 33L748.259 202.424C748.259 202.424 804.678 228.14 819.785 260.797C831.737 286.633 825.507 333.407 825.507 333.407C825.507 333.407 988.824 534.389 1038.65 687.915C1076.13 803.368 1083 995.441 1083 995.441L948.531 781.881C948.531 781.881 928.143 816.383 907.046 828.864C888.641 839.754 854.117 843.102 854.117 843.102C854.117 843.102 685.294 996.155 553.708 1052.39C419.714 1109.65 173.191 1125 173.191 1125L409.226 971.237C409.226 971.237 367.087 963.704 352.005 944.186C338.042 926.116 339.131 887.237 339.131 887.237C339.131 887.237 226.716 773.828 173.191 687.915C64.328 513.183 33 182.492 33 182.492L173.191 394.627C173.191 394.627 194.334 346.83 221.828 333.407C249.916 319.695 301.937 333.407 301.937 333.407Z" fill="#AE13C6"/>
<path d="M747.384 201.205L745.281 202.715L747.637 203.789H747.639C747.64 203.79 747.642 203.791 747.645 203.792C747.651 203.795 747.661 203.8 747.674 203.806C747.7 203.818 747.739 203.835 747.791 203.859C747.895 203.908 748.052 203.981 748.257 204.077C748.668 204.271 749.275 204.56 750.055 204.94C751.614 205.701 753.863 206.826 756.609 208.278C762.105 211.184 769.586 215.394 777.533 220.617C793.502 231.113 811.06 245.511 818.423 261.427C824.251 274.025 825.691 291.892 825.628 306.784C825.596 314.197 825.194 320.81 824.799 325.57C824.601 327.95 824.405 329.864 824.26 331.182C824.187 331.84 824.127 332.35 824.085 332.693C824.064 332.865 824.047 332.994 824.036 333.081C824.031 333.124 824.026 333.157 824.023 333.179C824.022 333.189 824.021 333.197 824.021 333.202C824.02 333.205 824.021 333.207 824.021 333.208L824.02 333.209L823.935 333.851L824.343 334.353L825.507 333.407L824.345 334.354C824.346 334.356 824.347 334.358 824.35 334.361C824.354 334.367 824.362 334.377 824.372 334.389C824.392 334.413 824.421 334.449 824.46 334.497C824.538 334.594 824.655 334.738 824.81 334.93C825.119 335.313 825.579 335.886 826.182 336.639C827.388 338.145 829.164 340.376 831.443 343.271C836.001 349.059 842.57 357.503 850.608 368.115C866.686 389.34 888.642 419.239 912.152 453.93C959.197 523.347 1012.38 611.828 1037.23 688.378C1055.91 745.945 1066.99 822.695 1073.39 885.126C1076.59 916.326 1078.61 943.923 1079.84 963.719C1080.46 973.616 1080.87 981.562 1081.13 987.033C1081.18 988.068 1081.23 989.014 1081.26 989.868L949.801 781.082L948.49 779.002L947.24 781.118L947.239 781.119C947.239 781.12 947.238 781.121 947.237 781.123C947.235 781.127 947.231 781.133 947.227 781.141C947.217 781.156 947.203 781.18 947.185 781.212C947.147 781.275 947.089 781.371 947.014 781.496C946.862 781.747 946.635 782.12 946.339 782.599C945.746 783.557 944.874 784.943 943.761 786.646C941.534 790.054 938.346 794.727 934.505 799.785C926.788 809.947 916.564 821.49 906.282 827.573C897.31 832.882 884.29 836.403 873.384 838.596C867.955 839.687 863.096 840.442 859.595 840.923C857.845 841.163 856.435 841.335 855.465 841.446C854.98 841.502 854.604 841.543 854.352 841.569C854.225 841.583 854.129 841.593 854.065 841.6C854.034 841.603 854.01 841.605 853.994 841.606C853.987 841.607 853.981 841.608 853.978 841.608H853.973L853.478 841.656L853.109 841.99L854.117 843.102C853.175 842.062 853.113 841.996 853.108 841.992C853.107 841.993 853.105 841.995 853.103 841.997C853.098 842.002 853.09 842.008 853.08 842.018C853.06 842.036 853.029 842.063 852.988 842.1C852.907 842.173 852.786 842.283 852.625 842.428C852.303 842.718 851.822 843.15 851.189 843.716C849.923 844.848 848.048 846.518 845.614 848.663C840.747 852.953 833.644 859.145 824.71 866.753C806.84 881.969 781.645 902.842 752.341 925.471C693.704 970.75 618.727 1022.97 553.119 1051.01C486.318 1079.56 391.358 1097.69 312.993 1108.68C273.832 1114.18 238.853 1117.88 213.665 1120.21C201.072 1121.38 190.927 1122.2 183.932 1122.73C181.986 1122.88 180.285 1123 178.842 1123.11L410.045 972.494L413.218 970.427L409.489 969.761C409.488 969.761 409.487 969.76 409.484 969.76C409.48 969.759 409.473 969.758 409.464 969.756C409.445 969.752 409.416 969.747 409.378 969.74C409.301 969.726 409.185 969.704 409.032 969.675C408.726 969.616 408.273 969.527 407.689 969.406C406.522 969.165 404.834 968.798 402.759 968.297C398.607 967.294 392.917 965.756 386.765 963.614C374.371 959.3 360.443 952.653 353.192 943.27C346.477 934.579 343.29 920.701 341.82 908.753C341.091 902.821 340.793 897.444 340.678 893.55C340.62 891.604 340.609 890.031 340.611 888.946C340.613 888.404 340.618 887.985 340.622 887.702C340.624 887.561 340.626 887.454 340.628 887.383C340.629 887.347 340.629 887.32 340.63 887.303V887.279L340.648 886.638L340.196 886.182L339.131 887.237C340.141 886.236 340.193 886.184 340.195 886.181L340.176 886.161C340.162 886.148 340.142 886.127 340.115 886.1C340.061 886.045 339.981 885.963 339.874 885.855C339.661 885.639 339.343 885.316 338.926 884.892C338.091 884.042 336.859 882.783 335.271 881.15C332.097 877.885 327.5 873.124 321.817 867.142C310.451 855.176 294.738 838.327 277.354 818.796C242.569 779.716 201.156 729.964 174.464 687.122C120.182 599.996 85.1753 473.864 63.7412 369.378C53.0294 317.16 45.7167 270.397 41.082 236.688C38.7648 219.835 37.1169 206.245 36.0488 196.872C35.6633 193.489 35.3559 190.655 35.1172 188.415L171.939 395.454L173.452 397.743L174.562 395.234V395.233L174.563 395.232C174.564 395.231 174.564 395.23 174.565 395.228C174.568 395.222 174.571 395.214 174.576 395.203C174.586 395.181 174.6 395.148 174.62 395.104C174.66 395.017 174.719 394.885 174.799 394.711C174.958 394.363 175.196 393.85 175.509 393.189C176.134 391.869 177.06 389.964 178.258 387.635C180.654 382.974 184.133 376.623 188.463 369.859C197.169 356.258 209.14 341.271 222.486 334.755C236.121 328.099 255.773 328.046 272.261 329.757C280.46 330.608 287.792 331.885 293.074 332.949C295.714 333.481 297.84 333.96 299.303 334.305C300.034 334.477 300.601 334.615 300.982 334.711C301.173 334.759 301.318 334.796 301.414 334.82C301.462 334.833 301.498 334.842 301.521 334.849C301.533 334.852 301.542 334.854 301.548 334.855C301.55 334.856 301.553 334.856 301.554 334.856L301.555 334.857L302.354 335.068L302.96 334.505L301.938 333.407C302.959 334.505 302.96 334.504 302.961 334.503C302.962 334.502 302.964 334.501 302.966 334.499C302.97 334.495 302.977 334.488 302.985 334.48C303.003 334.465 303.028 334.441 303.062 334.409C303.131 334.345 303.234 334.25 303.371 334.123C303.645 333.87 304.053 333.492 304.59 332.997C305.665 332.007 307.256 330.548 309.321 328.669C313.451 324.911 319.475 319.479 327.047 312.779C342.192 299.38 363.529 280.918 388.295 260.667C437.85 220.146 501.053 172.534 555.833 143.957C632.258 104.089 739.368 76.7147 827.478 59.3057C871.511 50.6052 910.761 44.4011 939.002 40.3721C953.122 38.3577 964.488 36.8866 972.323 35.9199C974.828 35.6109 976.972 35.3548 978.729 35.1475L747.384 201.205Z" stroke="#C61348" stroke-width="3"/>
</g>
<g filter="url(#filter1_f_2663_23)">
<path d="M314.131 345.102C314.131 345.102 450.659 217.981 555.275 163.407C701.23 87.2684 963.995 59 963.995 59L739.199 220.356C739.199 220.356 792.931 244.848 807.319 275.949C818.702 300.555 812.768 345.102 812.768 345.102C812.768 345.102 968.308 536.513 1015.77 682.729C1051.45 792.684 1058 975.61 1058 975.61L929.935 772.22C929.935 772.22 910.517 805.079 890.425 816.966C872.896 827.337 840.016 830.525 840.016 830.525C840.016 830.525 679.232 976.291 553.913 1029.85C426.299 1084.38 191.515 1099 191.515 1099L416.311 952.559C416.311 952.559 376.178 945.384 361.815 926.797C348.516 909.587 349.553 872.559 349.553 872.559C349.553 872.559 242.492 764.55 191.515 682.729C87.8362 516.317 58 201.373 58 201.373L191.515 403.407C191.515 403.407 211.651 357.885 237.837 345.102C264.586 332.042 314.131 345.102 314.131 345.102Z" fill="#C61348"/>
<path d="M738.324 219.138L736.221 220.647L738.577 221.721L738.578 221.722C738.579 221.722 738.582 221.723 738.585 221.725C738.591 221.727 738.599 221.732 738.611 221.737C738.636 221.749 738.673 221.765 738.723 221.788C738.822 221.834 738.971 221.904 739.167 221.996C739.558 222.18 740.136 222.455 740.878 222.817C742.362 223.542 744.503 224.613 747.118 225.995C752.35 228.761 759.474 232.77 767.04 237.743C782.248 247.738 798.954 261.441 805.957 276.579C811.501 288.563 812.873 305.564 812.812 319.746C812.782 326.804 812.398 333.101 812.022 337.633C811.835 339.898 811.648 341.721 811.51 342.975C811.44 343.602 811.384 344.086 811.344 344.413C811.324 344.576 811.307 344.701 811.297 344.783C811.292 344.824 811.288 344.855 811.285 344.875C811.284 344.885 811.283 344.893 811.282 344.897C811.282 344.9 811.281 344.901 811.281 344.902V344.903L811.196 345.545L811.604 346.048L812.769 345.102L811.605 346.05C811.607 346.051 811.609 346.053 811.611 346.056C811.616 346.061 811.623 346.071 811.632 346.082C811.65 346.105 811.679 346.139 811.716 346.185C811.79 346.276 811.902 346.414 812.049 346.597C812.343 346.962 812.781 347.507 813.355 348.225C814.504 349.659 816.196 351.784 818.366 354.54C822.707 360.053 828.962 368.094 836.617 378.2C851.929 398.414 872.838 426.888 895.229 459.926C940.033 526.036 990.679 610.297 1014.34 683.192C1032.13 738.011 1042.68 811.098 1048.77 870.556C1051.82 900.269 1053.75 926.55 1054.92 945.402C1055.51 954.828 1055.9 962.396 1056.15 967.606C1056.19 968.484 1056.23 969.294 1056.26 970.035L931.204 771.421L929.894 769.341L928.644 771.457L928.643 771.458C928.642 771.459 928.642 771.46 928.641 771.462C928.639 771.465 928.635 771.471 928.631 771.479C928.622 771.493 928.609 771.516 928.591 771.546C928.555 771.606 928.5 771.697 928.428 771.816C928.283 772.056 928.067 772.41 927.785 772.866C927.221 773.778 926.391 775.098 925.331 776.72C923.211 779.964 920.176 784.413 916.52 789.229C909.171 798.906 899.44 809.889 889.661 815.675C881.127 820.724 868.737 824.076 858.352 826.164C853.183 827.203 848.557 827.921 845.224 828.379C843.557 828.608 842.216 828.772 841.292 828.878C840.83 828.931 840.473 828.97 840.232 828.995C840.112 829.008 840.021 829.017 839.96 829.023C839.93 829.026 839.907 829.029 839.893 829.03C839.885 829.031 839.879 829.032 839.876 829.032H839.872L839.377 829.08L839.009 829.414L839.947 830.449C839.009 829.414 839.008 829.415 839.007 829.416C839.006 829.417 839.004 829.418 839.002 829.42C838.997 829.424 838.99 829.431 838.98 829.439C838.961 829.457 838.932 829.484 838.894 829.519C838.816 829.588 838.701 829.693 838.548 829.831C838.241 830.107 837.782 830.518 837.18 831.058C835.974 832.136 834.189 833.725 831.871 835.768C827.236 839.853 820.472 845.751 811.963 852.996C794.945 867.487 770.95 887.365 743.043 908.915C687.199 952.038 615.798 1001.77 553.323 1028.47C489.712 1055.65 399.283 1072.92 324.65 1083.39C287.355 1088.62 254.043 1092.15 230.056 1094.37C218.062 1095.48 208.401 1096.26 201.739 1096.77C200.009 1096.9 198.481 1097.01 197.167 1097.11L417.129 953.816L420.303 951.749L416.574 951.083L416.55 951.078C416.532 951.075 416.504 951.07 416.468 951.063C416.395 951.05 416.284 951.029 416.139 951.001C415.848 950.945 415.416 950.861 414.861 950.746C413.75 950.517 412.143 950.167 410.168 949.689C406.215 948.735 400.799 947.27 394.942 945.231C383.14 941.123 369.894 934.799 363.002 925.88C356.619 917.62 353.585 904.419 352.186 893.041C351.491 887.394 351.208 882.276 351.099 878.569C351.044 876.717 351.032 875.219 351.034 874.188C351.035 873.672 351.041 873.272 351.045 873.003C351.047 872.869 351.048 872.767 351.05 872.699C351.051 872.666 351.051 872.64 351.052 872.624C351.052 872.616 351.053 872.609 351.053 872.605V872.602L351.07 871.959L350.618 871.503L349.553 872.56C350.618 871.504 350.618 871.503 350.617 871.502L350.6 871.484C350.587 871.471 350.568 871.452 350.542 871.426C350.491 871.374 350.414 871.296 350.312 871.193C350.109 870.987 349.806 870.68 349.408 870.275C348.613 869.466 347.44 868.268 345.929 866.713C342.905 863.603 338.529 859.069 333.116 853.371C322.291 841.976 307.326 825.93 290.771 807.33C257.643 770.111 218.206 722.732 192.788 681.936C141.098 598.97 107.761 478.854 87.3477 379.345C77.1464 329.616 70.1814 285.081 65.7676 252.979C63.5608 236.928 61.9918 223.987 60.9746 215.061C60.6241 211.985 60.3421 209.385 60.1191 207.3L190.264 404.233L191.776 406.523L192.887 404.014L192.888 404.013C192.888 404.012 192.889 404.009 192.89 404.007C192.892 404.002 192.895 403.994 192.899 403.984C192.909 403.964 192.923 403.932 192.941 403.891C192.979 403.807 193.036 403.682 193.111 403.517C193.263 403.186 193.489 402.697 193.787 402.068C194.383 400.812 195.264 398.998 196.404 396.78C198.686 392.343 201.998 386.296 206.12 379.856C214.411 366.904 225.803 352.645 238.494 346.449C251.46 340.119 270.159 340.067 285.86 341.696C293.666 342.506 300.646 343.722 305.675 344.735C308.188 345.242 310.213 345.698 311.605 346.026C312.302 346.19 312.841 346.322 313.204 346.413C313.385 346.458 313.523 346.494 313.614 346.518C313.66 346.529 313.694 346.538 313.717 346.544C313.728 346.547 313.736 346.549 313.741 346.551C313.744 346.551 313.746 346.551 313.747 346.552H313.748L314.548 346.763L315.153 346.199L314.131 345.102C315.142 346.187 315.153 346.199 315.154 346.198C315.155 346.197 315.157 346.196 315.159 346.194C315.163 346.191 315.169 346.184 315.177 346.177C315.193 346.162 315.218 346.139 315.251 346.108C315.317 346.048 315.415 345.956 315.545 345.836C315.805 345.595 316.194 345.235 316.706 344.764C317.729 343.821 319.245 342.431 321.211 340.643C325.144 337.064 330.88 331.89 338.092 325.51C352.515 312.749 372.835 295.167 396.421 275.881C443.616 237.29 503.804 191.949 555.969 164.736C628.745 126.772 730.746 100.703 814.658 84.123C856.594 75.8372 893.974 69.9288 920.869 66.0918C934.316 64.1734 945.141 62.7732 952.603 61.8525C954.859 61.5742 956.807 61.3401 958.428 61.1484L738.324 219.138Z" stroke="#C61348" stroke-width="3"/>
</g>
<g filter="url(#filter2_f_2663_23)">
<path d="M737.741 218.325L734.235 220.841L738.162 222.631H738.163C738.164 222.631 738.166 222.633 738.168 222.634C738.173 222.636 738.183 222.64 738.194 222.646C738.218 222.656 738.254 222.673 738.303 222.695C738.4 222.74 738.548 222.809 738.741 222.9C739.128 223.083 739.702 223.356 740.439 223.716C741.915 224.436 744.047 225.502 746.651 226.879C751.863 229.634 758.957 233.628 766.49 238.579C781.682 248.563 798.174 262.136 805.05 276.999C810.495 288.769 811.873 305.58 811.812 319.742C811.783 326.767 811.401 333.037 811.026 337.55C810.839 339.805 810.654 341.619 810.517 342.865C810.448 343.488 810.39 343.969 810.351 344.292C810.331 344.453 810.316 344.576 810.306 344.656C810.301 344.696 810.296 344.726 810.294 344.745C810.293 344.755 810.292 344.762 810.291 344.767L810.29 344.771L810.147 345.841L810.828 346.679L812.769 345.102L810.83 346.68C810.831 346.681 810.833 346.684 810.835 346.687C810.839 346.692 810.846 346.701 810.855 346.712L811.271 347.225C811.564 347.589 812.002 348.133 812.575 348.85C813.722 350.282 815.412 352.404 817.58 355.158C821.917 360.667 828.169 368.703 835.82 378.804C851.124 399.007 872.023 427.467 894.401 460.487C939.197 526.585 989.774 610.748 1013.39 683.501C1031.15 738.213 1041.68 811.212 1047.78 870.657C1050.82 900.355 1052.76 926.623 1053.92 945.465C1054.46 954.091 1054.83 961.159 1055.08 966.287L932.05 770.889L929.867 767.421L927.782 770.948L927.78 770.952C927.778 770.955 927.776 770.961 927.771 770.968C927.763 770.982 927.75 771.004 927.732 771.033C927.697 771.092 927.643 771.182 927.571 771.3C927.429 771.536 927.215 771.887 926.935 772.34C926.374 773.246 925.549 774.559 924.494 776.173C922.384 779.403 919.363 783.832 915.724 788.624C908.387 798.286 898.754 809.134 889.152 814.814C880.772 819.773 868.522 823.099 858.154 825.184C853.011 826.218 848.406 826.933 845.088 827.389C843.43 827.616 842.095 827.779 841.178 827.885C840.719 827.938 840.365 827.976 840.127 828.001C840.008 828.014 839.919 828.022 839.859 828.028C839.83 828.031 839.808 828.034 839.794 828.035C839.787 828.036 839.781 828.037 839.778 828.037H839.774L838.951 828.117L838.337 828.673L840.017 830.525C838.412 828.756 838.34 828.677 838.336 828.675C838.335 828.676 838.333 828.678 838.331 828.68C838.326 828.684 838.319 828.69 838.31 828.698C838.291 828.715 838.262 828.742 838.224 828.776C838.147 828.846 838.031 828.95 837.878 829.088C837.572 829.363 837.115 829.774 836.514 830.312C835.31 831.389 833.526 832.977 831.21 835.018C826.578 839.099 819.819 844.993 811.315 852.234C794.307 866.717 770.324 886.586 742.432 908.124C686.599 951.238 615.282 1000.9 552.931 1027.55C489.451 1054.68 399.135 1071.93 324.512 1082.4C287.236 1087.63 253.94 1091.16 229.964 1093.38C217.977 1094.48 208.32 1095.27 201.663 1095.77C201.429 1095.79 201.198 1095.81 200.971 1095.82L417.675 954.654L422.964 951.209L416.751 950.099L416.747 950.098C416.743 950.097 416.737 950.096 416.729 950.095C416.712 950.092 416.686 950.087 416.65 950.08C416.579 950.067 416.471 950.046 416.328 950.019C416.042 949.964 415.614 949.88 415.063 949.767C413.962 949.539 412.366 949.192 410.402 948.718C406.472 947.768 401.088 946.312 395.271 944.287C383.486 940.185 370.492 933.937 363.793 925.268C357.588 917.237 354.576 904.276 353.179 892.919C352.489 887.311 352.207 882.225 352.098 878.54C352.043 876.699 352.032 875.212 352.034 874.189C352.035 873.678 352.04 873.283 352.044 873.019C352.046 872.886 352.048 872.786 352.05 872.721C352.051 872.688 352.051 872.664 352.052 872.648V872.629L352.082 871.56L351.329 870.8L349.553 872.56C351.261 870.866 351.326 870.802 351.328 870.799C351.327 870.798 351.326 870.796 351.324 870.795C351.321 870.792 351.317 870.787 351.311 870.78C351.298 870.767 351.278 870.748 351.253 870.723C351.202 870.671 351.126 870.594 351.024 870.491C350.822 870.286 350.519 869.978 350.122 869.574C349.328 868.766 348.156 867.569 346.646 866.016C343.625 862.909 339.25 858.377 333.841 852.683C323.021 841.293 308.064 825.255 291.518 806.665C258.397 769.454 219.007 722.128 193.637 681.407C142.047 598.602 108.736 478.635 88.3271 379.145C78.1312 329.442 71.1704 284.929 66.7588 252.843C64.5531 236.801 62.9851 223.867 61.9688 214.947C61.82 213.642 61.683 212.422 61.5576 211.291L189.43 404.785L191.951 408.601L193.802 404.418C193.802 404.417 193.803 404.415 193.804 404.413C193.806 404.409 193.808 404.401 193.812 404.392C193.821 404.372 193.835 404.342 193.854 404.301C193.89 404.219 193.947 404.095 194.021 403.932C194.171 403.605 194.395 403.12 194.69 402.496C195.282 401.248 196.159 399.444 197.294 397.237C199.565 392.82 202.861 386.802 206.962 380.396C215.242 367.46 226.509 353.414 238.934 347.349C251.626 341.152 270.075 341.064 285.757 342.691C293.523 343.497 300.471 344.707 305.478 345.716C307.979 346.22 309.992 346.673 311.376 346.999C312.068 347.162 312.602 347.294 312.961 347.384C313.14 347.429 313.276 347.463 313.365 347.486C313.41 347.498 313.443 347.506 313.465 347.512C313.476 347.515 313.483 347.516 313.488 347.518C313.491 347.518 313.492 347.518 313.493 347.519V347.52L314.826 347.87L315.834 346.932L314.131 345.102C315.82 346.916 315.835 346.931 315.836 346.931C315.837 346.93 315.838 346.928 315.84 346.926C315.844 346.922 315.85 346.917 315.858 346.909C315.875 346.894 315.899 346.871 315.932 346.841C315.997 346.78 316.095 346.689 316.225 346.569C316.484 346.329 316.872 345.97 317.383 345.5C318.405 344.559 319.919 343.17 321.884 341.382C325.814 337.806 331.547 332.636 338.755 326.259C353.171 313.505 373.481 295.931 397.055 276.655C444.24 238.072 504.362 192.785 556.432 165.623C629.073 127.729 730.956 101.681 814.853 85.1045C856.767 76.8229 894.128 70.9162 921.01 67.0811C934.45 65.1636 945.269 63.7647 952.725 62.8447C953.405 62.7608 954.058 62.6824 954.682 62.6064L737.741 218.325Z" stroke="#C61348" stroke-width="5"/>
</g>
<defs>
<filter id="filter0_f_2663_23" x="0" y="0" width="1116" height="1158" filterUnits="userSpaceOnUse" color-interpolation-filters="sRGB">
<feFlood flood-opacity="0" result="BackgroundImageFix"/>
<feBlend mode="normal" in="SourceGraphic" in2="BackgroundImageFix" result="shape"/>
<feGaussianBlur stdDeviation="16.5" result="effect1_foregroundBlur_2663_23"/>
</filter>
<filter id="filter1_f_2663_23" x="3" y="4" width="1110" height="1150" filterUnits="userSpaceOnUse" color-interpolation-filters="sRGB">
<feFlood flood-opacity="0" result="BackgroundImageFix"/>
<feBlend mode="normal" in="SourceGraphic" in2="BackgroundImageFix" result="shape"/>
<feGaussianBlur stdDeviation="27.5" result="effect1_foregroundBlur_2663_23"/>
</filter>
<filter id="filter2_f_2663_23" x="57" y="58" width="1002" height="1042" filterUnits="userSpaceOnUse" color-interpolation-filters="sRGB">
<feFlood flood-opacity="0" result="BackgroundImageFix"/>
<feBlend mode="normal" in="SourceGraphic" in2="BackgroundImageFix" result="shape"/>
<feGaussianBlur stdDeviation="0.5" result="effect1_foregroundBlur_2663_23"/>
</filter>
</defs>
</svg>
